<svg id="Capa_1" enable-background="new 0 0 511.883 511.883" height="512" viewBox="0 0 511.883 511.883" width="512" xmlns="http://www.w3.org/2000/svg"><g><path d="m436.919 74.963c-48.341-48.34-112.613-74.963-180.978-74.963s-132.637 26.623-180.978 74.963-74.963 112.614-74.963 180.978 26.623 132.637 74.963 180.978 112.614 74.963 180.978 74.963 132.637-26.623 180.978-74.963c48.342-48.341 74.964-112.614 74.964-180.978s-26.622-132.637-74.964-180.978zm-21.213 340.743c-42.675 42.675-99.413 66.177-159.765 66.177-60.351 0-117.09-23.502-159.765-66.177-42.674-42.674-66.176-99.414-66.176-159.765s23.502-117.09 66.177-159.765c42.674-42.674 99.413-66.176 159.764-66.176 60.352 0 117.09 23.502 159.765 66.177 42.675 42.674 66.177 99.414 66.177 159.765s-23.502 117.09-66.177 159.764z"/><path d="m84.535 210.941v90h342.813v-90zm312.813 60h-282.813v-30h282.813z"/></g></svg>